Coordinates
version=1
nRows=9
nColumns=24
inDegrees=yes

Units are S.I. units (second, meters, Newtons, ...)
Angles are in degrees.

endheader
time	pelvis_tilt	pelvis_list	pelvis_rotation	pelvis_tx	pelvis_ty	pelvis_tz	hip_flexion_r	hip_adduction_r	hip_rotation_r	knee_angle_r	ankle_angle_r	subtalar_angle_r	mtp_angle_r	hip_flexion_l	hip_adduction_l	hip_rotation_l	knee_angle_l	ankle_angle_l	subtalar_angle_l	mtp_angle_l	lumbar_extension	lumbar_bending	lumbar_rotation
      5.55000000	    -14.60065385	     -9.31374749	      6.76042244	      0.71693380	     -0.02172508	     -0.02624837	     29.94823530	      7.82542260	    -11.26406166	    -16.39529939	     -6.60885439	      1.59200792	      9.07990203	     17.71961713	    -17.04997737	    -10.77293164	    -58.91896601	    -28.13573951	     10.06412640	     24.68433611	     14.79852637	      9.80654971	     -7.66577015
      5.55500000	    -14.43917187	     -9.24653989	      6.65574391	      0.72292816	     -0.02068176	     -0.02566290	     29.25518941	      7.96947472	    -11.09087382	    -16.13697745	     -6.36512593	      1.70143264	      9.15625641	     18.33534343	    -17.04981002	    -10.66722412	    -59.83555396	    -27.57784443	      9.37300618	     24.54556402	     14.65734805	      9.77052938	     -7.37678171
      5.56000000	    -14.27412942	     -9.11643083	      6.55298823	      0.72888026	     -0.01959137	     -0.02511270	     28.54520505	      8.04636111	    -10.87965219	    -15.87097055	     -6.12673873	      1.80267061	      9.24225100	     18.91677357	    -16.95259273	    -10.55838553	    -60.65886554	    -27.01668475	      8.82429412	     24.40980681	     14.50387716	      9.66669750	     -7.08640525
      5.56500000	    -14.10795116	     -8.97052893	      6.42076485	      0.73480849	     -0.01849762	     -0.02454256	     27.82552724	      8.11692660	    -10.64142999	    -15.59169325	     -5.90636270	      1.90856096	      9.33695077	     19.46682342	    -16.83762308	    -10.47620974	    -61.39771169	    -26.45673691	      8.48338943	     24.37664011	     14.34481955	      9.55599412	     -6.76687660
      5.57000000	    -14.00551948	     -8.82740530	      6.30717797	      0.74066561	     -0.01748664	     -0.02399157	     27.18257891	      8.16427309	    -10.44813440	    -15.31961012	     -5.69271592	      2.00067138	      9.38581676	     20.09768382	    -16.69115901	    -10.33315028	    -62.06140725	    -25.96411804	      8.30489106	     24.59994136	     14.25644952	      9.43186635	     -6.46029924
      5.57500000	    -13.80252777	     -8.62716279	      6.11278379	      0.74659543	     -0.01633643	     -0.02334124	     26.39250998	      8.21691677	    -10.07975481	    -15.00027810	     -5.50286446	      2.03808159	      9.46785222	     20.52348154	    -16.52738739	    -10.33250207	    -62.60547423	    -25.43120936	      8.30520277	     24.79193252	     14.05084173	      9.28314963	     -6.06817438
      5.58000000	    -13.64520720	     -8.44263918	      5.94924474	      0.75242940	     -0.01525875	     -0.02274197	     25.65929333	      8.25533685	     -9.76199483	    -14.67744415	     -5.33979948	      2.04544612	      9.51761027	     21.02128117	    -16.34665185	    -10.27429731	    -63.09060481	    -24.93464644	      8.39651864	     25.13775196	     13.89668750	      9.13792446	     -5.71574234
      5.58500000	    -13.50964097	     -8.23922489	      5.76273890	      0.75827125	     -0.01421654	     -0.02211956	     24.94091744	      8.27647077	     -9.41242977	    -14.34831665	     -5.16834526	      2.05449127	      9.54910156	     21.51278969	    -16.14028514	    -10.24059697	    -63.49281756	    -24.45437775	      8.58621093	     25.56773388	     13.76622430	      8.96980166	     -5.35592412
      5.59000000	    -13.37063499	     -8.02017229	      5.55717992	      0.76406853	     -0.01318036	     -0.02146200	     24.21384425	      8.28805253	     -9.02956689	    -14.00765574	     -5.01578090	      2.02923041	      9.55423633	     21.97643885	    -15.91897012	    -10.23112548	    -63.81583478	    -23.98143193	      8.88426376	     26.07831477	     13.62651020	      8.79095644	     -4.97016557
